<?xml version="1.0" encoding="UTF-8"?>
<svg width="200px" height="200px" viewBox="0 0 200 200" version="1.1" xmlns="http://www.w3.org/2000/svg" xmlns:xlink="http://www.w3.org/1999/xlink">
    <title>star_walker_favicon</title>
    <g id="star_walker_favicon" stroke="none" stroke-width="1" fill="none" fill-rule="evenodd">
        <path d="M63.7138188,15 L136.286181,15 C153.225037,15 159.367476,16.7636866 165.560068,20.0755214 C171.752661,23.3873561 176.612644,28.247339 179.924479,34.4399316 C183.236313,40.6325242 185,46.7749627 185,63.7138188 L185,136.286181 C185,153.225037 183.236313,159.367476 179.924479,165.560068 C176.612644,171.752661 171.752661,176.612644 165.560068,179.924479 C159.367476,183.236313 153.225037,185 136.286181,185 L63.7138188,185 C46.7749627,185 40.6325242,183.236313 34.4399316,179.924479 C28.247339,176.612644 23.3873561,171.752661 20.0755214,165.560068 C16.7636866,159.367476 15,153.225037 15,136.286181 L15,63.7138188 C15,46.7749627 16.7636866,40.6325242 20.0755214,34.4399316 C23.3873561,28.247339 28.247339,23.3873561 34.4399316,20.0755214 C40.6325242,16.7636866 46.7749627,15 63.7138188,15 Z" id="Rectangle" fill="#FFFFFF"></path>
        <path d="M94.068172,35 C101.619718,35 106.372074,40.4376565 105.658823,47.6082233 C107.035992,40.426352 113.352604,35 120.936608,35 L150.4416,35 C159.034267,35 166,41.9657329 166,50.5584 L166,85.4416 C166,94.0342671 159.034267,101 150.4416,101 L154.338781,101 C162.833831,101 167.786522,107.881322 165.400926,116.369863 L155.491475,151.630137 C153.105879,160.118678 144.285373,167 135.790323,167 L105.931828,167 C98.3802818,167 93.6279262,161.562344 94.3411766,154.391777 C92.9640078,161.573648 86.6473961,167 79.0633921,167 L49.5584,167 C40.9657329,167 34,160.034267 34,151.4416 L34,116.5584 C34,107.992087 40.9230706,101.042743 49.4793847,101.000196 L45.6612186,101 C37.1661686,101 32.2134778,94.1186779 34.599074,85.630137 L44.5085246,50.369863 C46.8941208,41.8813221 55.7146274,35 64.2096774,35 L94.068172,35 Z M105.130317,50.369863 L95.2208661,85.630137 C92.843306,94.0900836 84.0741155,100.953621 75.605573,100.999766 L79.0633921,101 C87.6560592,101 94.6217921,107.965733 94.6217921,116.5584 L94.6217921,151.4416 C94.6217921,151.972012 94.5952499,152.496224 94.5434213,153.012981 L94.5840529,152.803623 C94.6636425,152.416292 94.7587253,152.024953 94.8696833,151.630137 L104.779134,116.369863 C107.16473,107.881322 115.985237,101 124.480287,101 L120.936608,101 C112.343941,101 105.378208,94.0342671 105.378208,85.4416 L105.378208,50.5584 C105.378208,50.0279885 105.40475,49.5037762 105.456579,48.9870189 L105.415947,49.196377 C105.336357,49.5837082 105.241275,49.9750472 105.130317,50.369863 Z" id="Combined-Shape" fill="#212121"></path>
    </g>
</svg>